<?xml version="1.0" encoding="UTF-8"?>
<svg version="1.1" xmlns="http://www.w3.org/2000/svg" width="2000" height="1999">
<path d="M0 0 C1.76210815 -0.01210762 1.76210815 -0.01210762 3.55981445 -0.02445984 C6.04767403 -0.03825499 8.53555218 -0.04899745 11.0234375 -0.05688477 C13.5208914 -0.06830997 16.01832276 -0.08860785 18.515625 -0.1184082 C67.39001258 -0.70009141 115.22020058 13.96163406 151.36328125 47.94140625 C153.48309844 49.92936879 155.6489453 51.80962761 157.875 53.67578125 C188.53482841 80.61174386 207.0597833 121.62515689 213.8125 161.23828125 C213.93109375 161.92100098 214.0496875 162.6037207 214.171875 163.30712891 C216.11269917 175.21489389 216.0175621 187.26953289 216.0625 199.30078125 C216.06785767 200.10085602 216.07321533 200.90093079 216.07873535 201.72525024 C216.15658739 217.0792056 215.1570417 232.26490493 211.5625 247.23828125 C211.34416504 248.16068604 211.12583008 249.08309082 210.90087891 250.03344727 C203.20551072 281.64000725 188.12929914 310.45727374 165.8125 334.23828125 C165.28221191 334.81094727 164.75192383 335.38361328 164.20556641 335.97363281 C134.00687832 368.31982276 89.88986111 390.12124181 45.40933228 392.35919189 C40.01414783 392.53629317 34.6173976 392.59160453 29.2197876 392.64419556 C-24.66706754 393.22963942 -76.07538997 402.25938548 -125.1875 425.23828125 C-126.03328613 425.63096191 -126.87907227 426.02364258 -127.75048828 426.42822266 C-152.80944492 438.17323393 -176.09941815 453.33505633 -197.1875 471.23828125 C-198.19039062 472.05683594 -199.19328125 472.87539063 -200.2265625 473.71875 C-207.87117229 480.02142008 -214.97519306 486.81667995 -222 493.80078125 C-222.87124512 494.6628418 -223.74249023 495.52490234 -224.64013672 496.41308594 C-230.57923097 502.38042393 -235.92783918 508.67083439 -241.1875 515.23828125 C-242.74700185 517.05336155 -244.30883812 518.86644451 -245.875 520.67578125 C-293.98042467 578.59560477 -318.00720028 654.12065637 -319.5177002 728.7124939 C-320.45321804 771.0153618 -330.88110535 811.69181804 -356.1875 846.23828125 C-356.61111816 846.81739258 -357.03473633 847.39650391 -357.47119141 847.99316406 C-376.20036827 873.28001813 -399.34711396 892.68357981 -427.1875 907.23828125 C-428.34121094 907.84285156 -429.49492188 908.44742188 -430.68359375 909.0703125 C-475.78289279 931.34343343 -529.41653013 934.16722455 -577.1875 919.23828125 C-606.12678132 909.41599435 -631.71875973 893.70608542 -653.74316406 872.61962891 C-655.02551618 871.39320086 -656.32047661 870.17998638 -657.6171875 868.96875 C-685.83085499 841.90973438 -702.94763425 804.13420921 -710.1875 766.23828125 C-710.53941406 764.41490234 -710.53941406 764.41490234 -710.8984375 762.5546875 C-717.46856638 722.89586608 -710.75573171 681.21478885 -693.1875 645.23828125 C-692.67147217 644.1694873 -692.67147217 644.1694873 -692.14501953 643.07910156 C-670.10180599 597.92391261 -629.40245172 562.87092235 -582.1875 546.23828125 C-559.50106672 538.55533579 -537.21121661 535.40679785 -513.32028198 534.85076904 C-429.48370548 532.88582117 -350.59531294 502.81450141 -288.453125 446.28515625 C-286.36988873 444.40306004 -284.25531067 442.56665813 -282.125 440.73828125 C-274.90701127 434.43709351 -268.39018297 427.5273812 -262.1875 420.23828125 C-261.39988281 419.33980469 -260.61226562 418.44132812 -259.80078125 417.515625 C-213.98918909 364.89339323 -186.49579658 298.40111223 -179.1875 229.23828125 C-179.04610596 228.00259399 -179.04610596 228.00259399 -178.90185547 226.74194336 C-178.21088181 219.86042258 -178.07109776 212.99581352 -177.9765625 206.0859375 C-177.9621814 205.05844391 -177.94780029 204.03095032 -177.9329834 202.97232056 C-177.8758461 198.68105445 -177.82146732 194.38989598 -177.78613281 190.09838867 C-177.62196761 171.65103152 -176.3819293 153.54999684 -171.5 135.67578125 C-171.24653809 134.73089844 -170.99307617 133.78601563 -170.73193359 132.8125 C-157.91638387 86.80875102 -126.78502097 47.5588712 -85.50952148 23.73095703 C-65.25290783 12.3067302 -43.21409069 4.68513351 -20.1875 1.23828125 C-19.02992188 1.06393555 -17.87234375 0.88958984 -16.6796875 0.70996094 C-11.1332102 0.03264703 -5.58119828 0.03719751 0 0 Z " fill="#3EA6AC" transform="translate(1249.1875,-0.23828125)"/>
<path d="M0 0 C13.45793282 12.40597569 24.30363405 26.51773667 34 42 C34.56799316 42.89912109 34.56799316 42.89912109 35.14746094 43.81640625 C49.28844946 66.53029241 58.10587905 93.42670762 61 120 C61.10957031 120.88042969 61.21914062 121.76085938 61.33203125 122.66796875 C65.46809722 161.76757903 57.50612517 201.43990704 39 236 C38.53207031 236.93585938 38.06414063 237.87171875 37.58203125 238.8359375 C24.88933847 263.62577149 4.40540448 285.6939473 -18 302 C-18.84522217 302.6197168 -18.84522217 302.6197168 -19.70751953 303.25195312 C-43.63654275 320.57253087 -71.00293517 331.76512715 -100 337 C-100.98581055 337.17893799 -101.97162109 337.35787598 -102.98730469 337.54223633 C-113.03599344 339.17286582 -123.07033486 339.49194372 -133.22961426 339.8331604 C-184.38790569 341.60042991 -233.55325091 350.73063191 -280 373 C-280.83128418 373.39445312 -281.66256836 373.78890625 -282.51904297 374.1953125 C-306.06766799 385.42403583 -327.80990661 399.49643304 -348 416 C-348.8053418 416.65669678 -348.8053418 416.65669678 -349.62695312 417.32666016 C-367.71276006 432.15460454 -384.67436052 448.46813156 -399 467 C-399.81355957 468.04534912 -399.81355957 468.04534912 -400.64355469 469.11181641 C-446.13225966 527.81204477 -472.04971485 599.18583089 -473.23901367 673.59277344 C-474.20077543 731.19422285 -493.9347607 781.90158342 -535.34765625 822.4375 C-538.480858 825.40033853 -541.68414514 828.24236986 -545 831 C-545.88945313 831.73992188 -546.77890625 832.47984375 -547.6953125 833.2421875 C-574.92709108 855.04153966 -608.45721557 869.29146534 -643 874 C-643.70842041 874.10022461 -644.41684082 874.20044922 -645.14672852 874.30371094 C-666.93955172 876.94128317 -691.58111397 876.7821906 -713 872 C-713.91023926 871.80132324 -714.82047852 871.60264648 -715.75830078 871.39794922 C-746.69037071 864.4495539 -775.013939 850.81739549 -799 830 C-800.24330078 828.92298828 -800.24330078 828.92298828 -801.51171875 827.82421875 C-804.04417431 825.5859574 -806.52919471 823.30608494 -809 821 C-810.29357422 819.80503906 -810.29357422 819.80503906 -811.61328125 818.5859375 C-848.01001534 783.71670745 -865.92788126 733.62769406 -867.0690918 683.99511719 C-867.45619579 627.8331584 -846.60658491 577.7197478 -807.62109375 537.61425781 C-773.89707802 504.03245179 -726.38473717 483.99474413 -678.9296875 482.60546875 C-676.97685382 482.53974549 -675.02405524 482.47297276 -673.07128906 482.40527344 C-672.05973755 482.37042847 -671.04818604 482.3355835 -670.00598145 482.29968262 C-592.51825041 479.5233083 -520.16257868 456.54928424 -459 408 C-458.07832031 407.27296875 -457.15664063 406.5459375 -456.20703125 405.796875 C-439.03876928 392.0226273 -422.51240598 376.3941517 -409 359 C-408.09962125 357.90875445 -407.19574897 356.82038531 -406.2890625 355.734375 C-389.78213797 335.82379082 -376.07293885 313.39929947 -364.98144531 290.05322266 C-364.32420235 288.67824421 -363.65675872 287.30809784 -362.97949219 285.94287109 C-342.40990083 244.43056556 -332.63422849 197.16446366 -331.61239624 151.07748413 C-331.31502294 138.32353452 -330.94211918 125.62802747 -329 113 C-328.88317871 112.23075195 -328.76635742 111.46150391 -328.64599609 110.66894531 C-324.18720222 82.69242161 -313.438369 55.12566248 -297 32 C-296.26007812 30.95714844 -295.52015625 29.91429687 -294.7578125 28.83984375 C-290.51119251 23.02829287 -285.99176052 17.58332001 -281.109375 12.296875 C-279.22100188 10.24064649 -277.42019417 8.13713592 -275.625 6 C-245.98510525 -27.75842227 -197.20834443 -49.92056001 -152.68554688 -52.87109375 C-94.78528032 -55.65030654 -43.2728337 -39.04672091 0 0 Z " fill="#3EA6AC" transform="translate(1403,1124)"/>
<path d="M0 0 C1.76007072 1.61408676 3.5090861 3.2402695 5.25 4.875 C5.77609863 5.36709961 6.30219727 5.85919922 6.84423828 6.36621094 C43.27133705 40.72107798 64.65635373 89.449735 66.37255859 139.4453125 C66.48518417 143.54671815 66.58784424 147.64826463 66.6875 151.75 C68.73292111 235.43031799 99.34932545 315.43098441 156.55078125 376.953125 C159.05487591 379.66378029 161.49926845 382.4177361 163.9375 385.1875 C167.12196932 388.73205066 170.41096617 391.9232686 174.0546875 394.98828125 C176.67966153 397.24426427 179.17079682 399.62387561 181.6875 402 C201.06679168 419.90756391 223.89105063 434.73548394 247.25 446.875 C247.90307129 447.21934082 248.55614258 447.56368164 249.22900391 447.91845703 C296.66505066 472.84409484 348.74897037 484.96677537 402.16723633 486.26123047 C456.82897333 487.60678958 504.59399054 506.08848813 544.25 543.875 C545.02859375 544.60074219 545.8071875 545.32648437 546.609375 546.07421875 C579.43653037 577.56267807 600.28384752 625.75032884 601.6353302 671.06542969 C601.71721723 675.75279527 601.71840424 680.43714515 601.6875 685.125 C601.68445862 686.10846405 601.68141724 687.0919281 601.67828369 688.10519409 C601.61019995 703.01719739 601.00678408 717.36681883 597.25 731.875 C597.02505859 732.75285156 596.80011719 733.63070312 596.56835938 734.53515625 C595.02010273 740.3954996 593.23405382 746.14838609 591.25 751.875 C591.02618652 752.52694336 590.80237305 753.17888672 590.57177734 753.85058594 C581.82511215 778.73840847 567.21472473 800.74338227 549.25 819.875 C548.75790039 820.40109863 548.26580078 820.92719727 547.75878906 821.46923828 C511.36144908 860.06200876 462.8114335 877.29651681 410.71875 880.0625 C358.76479618 881.17978933 308.32901655 862.24029147 270.79003906 826.35205078 C270.28182617 825.86462402 269.77361328 825.37719727 269.25 824.875 C268.71342773 824.36565918 268.17685547 823.85631836 267.62402344 823.33154297 C259.66036123 815.73964303 252.61772849 807.84829639 246.25 798.875 C245.84185059 798.30587891 245.43370117 797.73675781 245.01318359 797.15039062 C222.32995568 765.25403737 209.7762466 727.33752283 208.96020508 688.24584961 C207.71623783 629.90770659 195.50114772 574.80987502 168.25 522.875 C167.9195166 522.2444873 167.5890332 521.61397461 167.24853516 520.96435547 C157.4369303 502.45556198 145.38283371 485.16844979 132.25 468.875 C131.77900879 468.28686523 131.30801758 467.69873047 130.82275391 467.09277344 C123.33919468 457.84883834 115.00222556 449.42465892 106.625 441 C106.09588013 440.46552246 105.56676025 439.93104492 105.02160645 439.38037109 C98.1034825 432.40917514 90.99405798 425.9392092 83.25 419.875 C82.52022949 419.2965332 81.79045898 418.71806641 81.03857422 418.12207031 C65.56549342 405.93338722 49.4359976 395.48017169 32.25 385.875 C31.50298828 385.4521875 30.75597656 385.029375 29.98632812 384.59375 C-18.23784377 357.44909739 -73.26099659 345.68394582 -128.15673828 344.20922852 C-180.3126954 342.75836572 -228.41043576 324.4525541 -266.28662109 288.27099609 C-267.2610153 287.34146889 -268.2405249 286.41727418 -269.22509766 285.49853516 C-304.47355856 252.54964435 -325.02441908 204.07719405 -326.85498047 156.125 C-328.17148691 107.97847876 -314.21100661 58.39363244 -281.75 21.875 C-280.7290625 20.69164062 -280.7290625 20.69164062 -279.6875 19.484375 C-277.42096365 16.90119019 -275.10140779 14.38124781 -272.75 11.875 C-272.25935059 11.35035156 -271.76870117 10.82570313 -271.26318359 10.28515625 C-207.39666712 -57.43250922 -98.90091399 -68.17690505 0 0 Z " fill="#C6658C" transform="translate(1398.75,584.125)"/>
<path d="M0 0 C0.79212891 0.16628906 1.58425781 0.33257813 2.40039062 0.50390625 C31.00387903 6.56111556 57.92744038 19.03701914 81 37 C81.56831543 37.44134277 82.13663086 37.88268555 82.72216797 38.33740234 C102.23387152 53.71218563 118.78026576 72.34663092 131 94 C131.38220703 94.6609668 131.76441406 95.32193359 132.15820312 96.00292969 C143.59035054 115.90501199 150.93661123 137.43977436 155 160 C155.12455566 160.68803711 155.24911133 161.37607422 155.37744141 162.08496094 C157.20987884 172.86240779 157.26165945 183.7768617 157.55737305 194.67736816 C159.40207097 262.15672939 177.88614555 326.96515511 216 383 C216.41072754 383.60505371 216.82145508 384.21010742 217.24462891 384.83349609 C226.32120512 398.09926132 236.48178091 410.53409041 247.45703125 422.26953125 C249.83707917 424.82506657 252.13897129 427.4338415 254.4375 430.0625 C259.59096252 435.79161525 265.23585238 440.90443765 271 446 C271.5269043 446.47163574 272.05380859 446.94327148 272.59667969 447.42919922 C325.09102208 494.31842883 392.35376116 522.22183687 462 530 C462.83571533 530.0942627 463.67143066 530.18852539 464.5324707 530.28564453 C471.82953809 531.03166626 479.11873873 531.18781758 486.44689941 531.3302002 C530.752432 532.26841094 573.64346999 541.1439355 610 568 C611.55654297 569.13308594 611.55654297 569.13308594 613.14453125 570.2890625 C621.27819267 576.31664333 628.68955991 583.0082712 636 590 C637.01707031 590.95519531 637.01707031 590.95519531 638.0546875 591.9296875 C651.66060411 605.0340035 662.32234149 621.32327663 671 638 C671.38043457 638.72815918 671.76086914 639.45631836 672.15283203 640.20654297 C696.54463735 687.54691208 699.55908315 744.36340655 683.4375 794.875 C673.75837347 823.32409152 657.43279817 847.2956963 637 869 C636.30519531 869.76054688 635.61039063 870.52109375 634.89453125 871.3046875 C603.81279704 904.12988456 555.28655689 923.50246737 510.62109375 925.12255859 C461.69887144 926.20752723 416.41294198 914.9516584 377 885 C376.06671875 884.31035156 375.1334375 883.62070313 374.171875 882.91015625 C334.69504672 852.33377852 309.73397607 806.61193437 301.6875 757.75 C300.38175711 747.36874334 299.87562748 737.05176473 299.67007446 726.59466553 C298.91622408 691.56231463 293.82497825 657.37651204 283 624 C282.73106934 623.15501953 282.46213867 622.31003906 282.18505859 621.43945312 C268.96188629 580.25756115 246.90046233 539.14899762 217.23046875 507.40625 C215.4061668 505.43817645 213.65651817 503.43838778 211.91015625 501.40234375 C207.69512783 496.57118182 203.20954793 492.02346851 198.67675781 487.49145508 C197.26080053 486.07331716 195.85301711 484.64703335 194.4453125 483.22070312 C188.27593716 477.03843911 181.85368571 471.40839018 175 466 C174.24847656 465.39454346 173.49695313 464.78908691 172.72265625 464.1652832 C162.2419288 455.72872872 151.50977597 447.97018272 140 441 C139.22382324 440.52884766 138.44764648 440.05769531 137.64794922 439.57226562 C99.64158149 416.72115631 58.69658057 401.46091322 15 394 C14.10216797 393.84547363 13.20433594 393.69094727 12.27929688 393.53173828 C-2.11916379 391.1630796 -16.57076116 390.58705818 -31.125 390 C-61.18310892 388.78566352 -61.18310892 388.78566352 -75 386 C-75.81082031 385.83661133 -76.62164062 385.67322266 -77.45703125 385.50488281 C-109.58911962 378.74615038 -140.08673811 364.51198323 -165 343 C-165.76828125 342.34128906 -166.5365625 341.68257812 -167.328125 341.00390625 C-169.93190708 338.7150978 -172.47273801 336.37311693 -175 334 C-175.52609863 333.50790039 -176.05219727 333.01580078 -176.59423828 332.50878906 C-189.88442629 319.97464121 -201.00174438 305.91427027 -210 290 C-210.35513672 289.38253906 -210.71027344 288.76507812 -211.07617188 288.12890625 C-219.84050796 272.78752072 -226.02440981 256.74147645 -230.375 239.625 C-230.61371826 238.687771 -230.85243652 237.75054199 -231.09838867 236.78491211 C-234.59584746 222.23472462 -235.40889721 207.95176567 -235.375 193.0625 C-235.37445618 192.16125397 -235.37391235 191.26000793 -235.37335205 190.33145142 C-235.33343238 175.91102905 -234.52790898 162.04451437 -231 148 C-230.78569336 147.14293457 -230.57138672 146.28586914 -230.35058594 145.40283203 C-219.70141426 104.3484926 -196.86006994 66.05416068 -163 40 C-162.22785156 39.3503125 -161.45570313 38.700625 -160.66015625 38.03125 C-153.29467268 31.85453832 -145.26055442 26.87436376 -137 22 C-136.39027344 21.63874023 -135.78054687 21.27748047 -135.15234375 20.90527344 C-119.05487306 11.50328918 -101.12850469 5.17525128 -83 1 C-82.17918945 0.80390137 -81.35837891 0.60780273 -80.51269531 0.40576172 C-55.16024201 -5.42025301 -25.42651911 -5.76122734 0 0 Z " fill="#C6658C" transform="translate(235,538)"/>
<path d="M0 0 C0.82602722 -0.00067474 1.65205444 -0.00134949 2.50311279 -0.00204468 C15.29405396 0.01454358 27.71157631 0.4991686 40.25 3.25 C41.43335938 3.50740967 41.43335938 3.50740967 42.640625 3.77001953 C68.01987095 9.49570022 92.23043569 19.85249356 113.25 35.25 C114.11866699 35.88542725 114.11866699 35.88542725 115.00488281 36.53369141 C122.08619882 41.77859928 128.72584748 47.4484161 135.1875 53.4375 C135.79013672 53.9953418 136.39277344 54.55318359 137.01367188 55.12792969 C155.28777317 72.38005743 168.60307293 93.67666197 179.25 116.25 C180.05244141 117.94189453 180.05244141 117.94189453 180.87109375 119.66796875 C202.44481931 167.46637888 202.16915856 222.7446602 184.30126953 271.49072266 C175.23359298 295.29074133 160.80172491 315.94978831 143.25 334.25 C142.74065918 334.78657227 142.23131836 335.32314453 141.70654297 335.87597656 C110.27423899 368.84746635 63.90261564 391.22115296 17.98144531 392.41113281 C16.51373432 392.43060667 15.04593928 392.44440555 13.578125 392.453125 C12.78177139 392.46013931 11.98541779 392.46715363 11.16493225 392.47438049 C8.60989655 392.49177903 6.05509276 392.49823256 3.5 392.5 C2.1894313 392.50101212 2.1894313 392.50101212 0.85238647 392.50204468 C-12.2357126 392.4859794 -24.91781558 392.04672316 -37.75 389.25 C-38.56839355 389.07839355 -39.38678711 388.90678711 -40.22998047 388.72998047 C-84.85289894 379.15876219 -125.66159864 354.39654929 -153.75 318.25 C-154.18602539 317.69038574 -154.62205078 317.13077148 -155.07128906 316.55419922 C-162.25380176 307.2659392 -168.3613247 297.67861542 -173.75 287.25 C-174.12898438 286.52329102 -174.50796875 285.79658203 -174.8984375 285.04785156 C-197.89205469 240.43020344 -202.197628 187.24995924 -187.75 139.25 C-187.50797852 138.44288574 -187.26595703 137.63577148 -187.01660156 136.80419922 C-177.41614804 105.62434792 -159.90044593 79.82950695 -137.75 56.25 C-137.16863281 55.61449219 -136.58726563 54.97898437 -135.98828125 54.32421875 C-108.00527106 24.79051279 -66.30187854 7.19333458 -26.75 1.25 C-26.09692871 1.146875 -25.44385742 1.04375 -24.77099609 0.9375 C-16.57855315 -0.17307082 -8.25228983 0.00604571 0 0 Z " fill="#3EA6AC" transform="translate(1267.75,1606.75)"/>
<path d="M0 0 C0.83113312 -0.00983917 1.66226624 -0.01967834 2.51858521 -0.02981567 C58.63225041 -0.55681799 109.39727306 15.76730515 151.12890625 54.23828125 C151.70737305 54.77146973 152.28583984 55.3046582 152.88183594 55.85400391 C187.55118061 88.23819321 210.45118238 135.97168293 212.25512695 183.56860352 C213.49324444 241.83087474 195.40246507 292.34136345 155.46484375 335.08984375 C126.73498514 364.54934957 88.42287801 383.19830942 48.12890625 390.23828125 C46.33839844 390.57666016 46.33839844 390.57666016 44.51171875 390.921875 C-4.5396681 398.70355016 -57.79482996 385.67483883 -97.89990234 356.671875 C-98.55039551 356.19878906 -99.20088867 355.72570312 -99.87109375 355.23828125 C-100.76368896 354.60599609 -100.76368896 354.60599609 -101.67431641 353.9609375 C-117.83098169 342.45132445 -132.61817189 327.56724938 -143.87109375 311.23828125 C-144.27972656 310.65804199 -144.68835938 310.07780273 -145.109375 309.47998047 C-176.22036656 265.22201022 -186.81872198 210.25646332 -177.90625 157.08984375 C-170.96122085 119.64946284 -153.85862706 86.91382654 -127.87109375 59.23828125 C-127.37899414 58.71218262 -126.88689453 58.18608398 -126.37988281 57.64404297 C-94.37462111 23.70827405 -47.10754728 0.46023877 0 0 Z " fill="#3EA6AC" transform="translate(716.87109375,-0.23828125)"/>
<path d="M0 0 C0.54333984 0.43505859 1.08667969 0.87011719 1.64648438 1.31835938 C40.27224494 32.54488644 64.55987003 78.21505632 70.71917725 127.32751465 C71.5177831 134.92754856 71.49435962 142.55416365 71.4375 150.1875 C71.43412628 151.07597626 71.43075256 151.96445251 71.42727661 152.87985229 C71.34705191 167.54161397 70.43992597 181.69455052 67 196 C66.76394043 196.98629395 66.52788086 197.97258789 66.28466797 198.98876953 C53.27746844 251.31108922 20.05530477 296.51436334 -26.015625 324.484375 C-70.79352093 350.78206245 -123.89099018 357.60523735 -174.2121582 345.17333984 C-223.69824029 332.13223575 -267.84359484 299.95801049 -293.84545898 255.63256836 C-294.91435908 253.76412223 -295.9628202 251.88622685 -297 250 C-297.3398291 249.3822168 -297.6796582 248.76443359 -298.02978516 248.12792969 C-322.57010906 202.80285512 -327.98668716 148.93440262 -313.73876953 99.43798828 C-309.76849763 86.33582859 -304.47626712 74.04364003 -298 62 C-297.68981934 61.40912598 -297.37963867 60.81825195 -297.06005859 60.20947266 C-289.50754846 45.87527971 -279.67902633 33.10391317 -268.42724609 21.47851562 C-266.94358254 19.94155591 -265.48227723 18.38498235 -264.01953125 16.828125 C-232.62069813 -16.08729745 -188.65021262 -35.2425009 -144 -41 C-142.99324219 -41.13277344 -141.98648437 -41.26554688 -140.94921875 -41.40234375 C-90.48693376 -46.73338109 -39.49503013 -31.63738015 0 0 Z " fill="#C6658C" transform="translate(1929,577)"/>
<path d="M0 0 C0.81726563 0.70640625 1.63453125 1.4128125 2.4765625 2.140625 C5.02331565 4.38823572 7.51893834 6.68009491 10 9 C10.93585938 9.87011719 11.87171875 10.74023438 12.8359375 11.63671875 C45.61675002 42.82786261 67.67737353 90.52433088 69.12255859 135.84326172 C69.22065741 140.49958713 69.24659586 145.15523766 69.25 149.8125 C69.25067474 150.64047089 69.25134949 151.46844177 69.25204468 152.32150269 C69.23590374 164.78788983 68.74626677 176.79584544 66 189 C65.82307617 189.82161621 65.64615234 190.64323242 65.46386719 191.48974609 C57.82937912 226.38555379 41.13446762 257.67312428 16.45947266 283.47314453 C15.47491573 284.50315775 14.4955186 285.53812459 13.52099609 286.57763672 C-22.71811527 325.13811465 -74.65697976 345.32752007 -127 347 C-158.47517231 347.43303298 -188.74709913 340.8854079 -217 327 C-217.64340332 326.68981934 -218.28680664 326.37963867 -218.94970703 326.06005859 C-245.77025577 313.01203758 -269.57316173 292.1019338 -287 268 C-287.63349365 267.12504883 -287.63349365 267.12504883 -288.27978516 266.23242188 C-302.5958019 246.1910984 -312.53437489 224.09053035 -318.375 200.1875 C-318.61379883 199.21087402 -318.85259766 198.23424805 -319.09863281 197.22802734 C-322.34704077 183.09909809 -323.41350393 169.07933582 -323.375 154.625 C-323.37445618 153.84752411 -323.37391235 153.07004822 -323.37335205 152.26901245 C-323.30372924 130.43780394 -319.88269927 109.73065545 -313 89 C-312.76023437 88.27635254 -312.52046875 87.55270508 -312.2734375 86.80712891 C-308.75514284 76.41414447 -304.15195661 66.67417453 -299 57 C-298.68836914 56.40477539 -298.37673828 55.80955078 -298.05566406 55.19628906 C-285.86948686 32.07479095 -267.56654722 10.9962034 -247 -5 C-246.17653076 -5.64606201 -246.17653076 -5.64606201 -245.33642578 -6.30517578 C-235.46867714 -13.99487038 -225.11168122 -20.27073716 -214 -26 C-213.36626465 -26.32983887 -212.7325293 -26.65967773 -212.07958984 -26.99951172 C-195.40181176 -35.5691033 -177.41476115 -40.78266018 -159 -44 C-157.20949219 -44.33837891 -157.20949219 -44.33837891 -155.3828125 -44.68359375 C-100.60372515 -53.37393037 -41.75482682 -36.23034204 0 0 Z " fill="#C6658C" transform="translate(324,1117)"/>
</svg>
